<svg id="e3pBr1LHDuS1" xmlns="http://www.w3.org/2000/svg" xmlns:xlink="http://www.w3.org/1999/xlink" viewBox="0 0 160 140" shape-rendering="geometricPrecision" text-rendering="geometricPrecision"><g transform="matrix(1.015452 0 0 1.015452-59.936796-56.66683)"><ellipse rx="41.345094" ry="41.345094" transform="translate(104.727497 97.9753)" fill="none" stroke="#000"/><ellipse rx="41.345094" ry="41.345094" transform="translate(170.887304 97.9753)" fill="none" stroke="#000"/><ellipse rx="41.345094" ry="41.345094" transform="translate(138.131951 151.503414)" fill="none" stroke="#000"/></g><path d="M146.07259,97.9753c0,9.30718-3.0753,17.89608-8.26519,24.80599-5.18989-6.90991-8.26519-15.49881-8.26519-24.80599s3.0753-17.89608,8.26519-24.80599c5.18989,6.90991,8.26519,15.49881,8.26519,24.80599Z" transform="matrix(1.015452 0 0 1.015452-59.936796-56.253271)" fill="none" stroke="#000"/><path d="M170.8873,139.32039c-18.40102,0-33.99442-12.02086-39.35569-28.63809c2.14926-.34482,4.35388-.52398,6.60034-.52398c18.40102,0,33.99442,12.02086,39.35569,28.63809-2.14926.34482-4.35388.52398-6.60034.52398Z" transform="matrix(1.015452 0 0 1.015452-60.197209-56.666828)" fill="none" stroke="#000"/><path d="M104.7275,139.32039c-2.03141,0-4.0286-.1465-5.98159-.42952c5.33257-16.66611,20.95017-28.73255,39.38604-28.73255c2.03141,0,4.0286.1465,5.98159.42952-5.33257,16.66611-20.95017,28.73255-39.38604,28.73255Z" transform="matrix(1.015452 0 0 1.015452-59.699969-56.666828)" fill="none" stroke="#000"/><path d="M135.30335,121.27788c-2.71781-3.61855-4.85573-7.69753-6.27579-12.09899c2.14926-.34482,4.35388-.52398,6.60034-.52398c2.03141,0,4.0286.1465,5.98159.42952-1.41986,4.43756-3.56889,8.54903-6.30614,12.19345Z" transform="matrix(1.015452 0 0 1.015452-57.38607-55.012408)" fill="none" stroke="#000"/></svg>
